# xmcd
#
# Track frame offsets:
# 150
# 21377
# 42550
# 60320
# 82917
# 102361
# 124135
# 144114
# 167624
# 186588
# 205123
# 223836
# 240676
#
# Disc length: 3489 seconds
#
#
# Revision: 1
# Processed by: cddbd v1.5.2PL0 Copyright (c) Steve Scherf et al.
# Submitted via: FreeRIP 2.90 
#
DISCID=b70d9f0d
DTITLE=Janne Da Arc - Arcadia
DYEAR=2004
DGENRE=JPop
TTITLE0=ACID BREATH
TTITLE1=ROMANCE
TTITLE2=Heavy Damage
TTITLE3=DOLLS
TTITLE4=trap
TTITLE5=Kokoro no Namegata
TTITLE6=ATHENS
TTITLE7=FREEDOM
TTITLE8=WIZARD
TTITLE9=process
TTITLE10=BLACK JACK
TTITLE11=Ka~Ne~Shon
TTITLE12=Kiss Me
EXTD=YEAR: 2004
EXTT0=
EXTT1=
EXTT2=
EXTT3=
EXTT4=
EXTT5=
EXTT6=
EXTT7=
EXTT8=
EXTT9=
EXTT10=
EXTT11=
EXTT12=
PLAYORDER=
